<svg width="1215" height="683" viewBox="0 0 1215 683" fill="none" xmlns="http://www.w3.org/2000/svg">
<g clip-path="url(#clip0_53_71901)">
<rect width="1215" height="683" fill="#80A2FF"/>
<g clip-path="url(#clip1_53_71901)">
<rect width="1215" height="683" fill="#80A2FF"/>
<g clip-path="url(#clip2_53_71901)">
<path d="M145 90V94H157V98H165V102H305V98H293V94H285V90H277V82H273V78H269V74H257V70H249V62H245V58H241V54H229V50H217V54H213V58H209V66H201V62H185V66H181V74H173V78H169V82H165V86H157V90H145Z" fill="white"/>
<path d="M145 94H157V98H165V102H305V98H293V94H285V90H277V82H273V78H269V90H261V94H253V98H205V94H197V90H177V86H169V82H165V86H157V90H145V94Z" fill="#E3EAFF"/>
<path d="M201 66V70H197V74H209V78H221V74H213V70H209V66H201Z" fill="#E3EAFF"/>
<path d="M225 78H221V82H225V78Z" fill="#E3EAFF"/>
<path d="M257 74V78H245V82H233V78H241V74H253V70H257V74Z" fill="#E3EAFF"/>
<path d="M233 82H229V86H233V82Z" fill="#E3EAFF"/>
<path d="M229 86H225V90H229V86Z" fill="#E3EAFF"/>
</g>
<g clip-path="url(#clip3_53_71901)">
<path d="M1054 160.077V166.385H1073.12V172.692H1085.88V179H1309V172.692H1289.88V166.385H1277.12V160.077H1264.38V147.462H1258V141.154H1251.62V134.846H1232.5V128.538H1219.75V115.923H1213.38V109.615H1207V103.308H1187.88V97H1168.75V103.308H1162.38V109.615H1156V122.231H1143.25V115.923H1117.75V122.231H1111.38V134.846H1098.62V141.154H1092.25V147.462H1085.88V153.769H1073.12V160.077H1054Z" fill="white"/>
<path d="M1054 166.385H1073.12V172.692H1085.88V179H1309V172.692H1289.88V166.385H1277.12V160.077H1264.38V147.462H1258V141.154H1251.62V160.077H1238.88V166.385H1226.12V172.692H1149.62V166.385H1136.88V160.077H1105V153.769H1092.25V147.462H1085.88V153.769H1073.12V160.077H1054V166.385Z" fill="#E3EAFF"/>
<path d="M1143.25 122.231V128.538H1136.88V134.846H1156V141.154H1175.12V134.846H1162.38V128.538H1156V122.231H1143.25Z" fill="#E3EAFF"/>
<path d="M1181.5 141.154H1175.12V147.462H1181.5V141.154Z" fill="#E3EAFF"/>
<path d="M1232.5 134.846V141.154H1213.38V147.462H1194.25V141.154H1207V134.846H1226.12V128.538H1232.5V134.846Z" fill="#E3EAFF"/>
<path d="M1194.25 147.462H1187.88V153.769H1194.25V147.462Z" fill="#E3EAFF"/>
<path d="M1187.88 153.769H1181.5V160.077H1187.88V153.769Z" fill="#E3EAFF"/>
</g>
<g clip-path="url(#clip4_53_71901)">
<path d="M721 108H917V104H901V100H897V96H889V92H881V88H877V80H869V76H861V72H857V68H849V64H833V68H825V72.22H821V76H813V80H809V88H801V80H797V76H793V72.22L777 72V76H765V80H757V84H753V88H749V92H737V96H733V100H725V104H721V108Z" fill="white"/>
<path d="M721 108H917V104H901V100H897V96H889V92H881V88H877V96H885V100H889V104H869V100H861V96H853V100H837V104H797V100H789V96H777V100H769V104H761V96H757V92H753V88H749V92H737V96H733V100H725V104H721V108Z" fill="#E3EAFF"/>
<path d="M809 88H821V92H833V88H825V84H817V76H813V80H809V88Z" fill="#E3EAFF"/>
<path d="M837 92H833V96H837V92Z" fill="#E3EAFF"/>
</g>
<g clip-path="url(#clip5_53_71901)">
<path d="M17 166V162H13V154H17V150H21V146H29V142H41V138H53V142H57V154H65V146H77V150H81V158H85V162H93V166H97V170H101V174H105V178H113V182H89V186H25V182H21V178H17V174H9V166H17Z" fill="white"/>
<path d="M113 182H89V186H25V182H21V178H17V174H9V170H21V174H29V178H57V174H65V166H69V178H77V174H85V170H89V162H93V166H97V170H101V174H105V178H113V182Z" fill="#E3EAFF"/>
<path d="M61 154V158H53V154H45V158H41V162H33V158H37V154H41V150H53V142H57V154H61Z" fill="#E3EAFF"/>
<path d="M29 166H33V162H29V166Z" fill="#E3EAFF"/>
<path d="M69 166H73V162H69V166Z" fill="#E3EAFF"/>
</g>
</g>
<rect y="407" width="1215" height="276" fill="#279BCC"/>
<path d="M289.1 215.2V206.2H280.1V179H271V169H280.1V150.9H290.1V169H317.5V179H290.1V205.2H316.5V196.1H326.6V206.2H317.5V215.2H289.1ZM336.723 215.2V150.9H346.823V178.1H354.823V169H374.023V178.1H383.223V215.2H373.023V179H355.823V188H346.823V215.2H336.723ZM402.463 215.2V206.2H393.363V178.1H402.463V169H430.663V178.1H439.863V188H429.663V179H403.463V187H421.663V197.1H403.463V205.2H429.663V196H439.863V206.1H430.663V215.2H402.463ZM481.077 215.2V206.2H471.977V150.9H482.077V205.2H508.277V196.1H518.477V206.2H509.277V215.2H481.077ZM536.643 215.2V206.2H527.543V178.1H536.643V169H564.843V178.1H574.043V188H563.843V179H537.643V187H555.843V197.1H537.643V205.2H563.843V196H574.043V206.1H564.843V215.2H536.643ZM595.237 215.2V206.2H586.137V178.1H595.237V169H623.437V178.1H632.637V205.2H641.737V215.2H631.637V206.2H623.437V215.2H595.237ZM596.237 205.2H622.437V179H596.237V205.2ZM649.809 215.2V150.9H659.909V187H667.909V178.1H686.109V169H696.309V179H687.109V188H668.909V196.1H687.109V205.2H696.309V215.2H686.109V206.2H667.909V197.1H659.909V215.2H649.809ZM711.545 215.2V206.2H702.445V178.1H711.545V169H739.745V178.1H748.945V188H738.745V179H712.545V187H730.745V197.1H712.545V205.2H738.745V196H748.945V206.1H739.745V215.2H711.545ZM761.039 215.2V169H798.339V178.1H807.539V215.2H797.339V179H771.139V215.2H761.039ZM819.633 215.2V169H829.733V215.2H819.633ZM819.633 161V150.9H829.733V161H819.633ZM839.848 215.2V169H877.148V178.1H886.348V215.2H876.148V179H849.948V215.2H839.848ZM905.588 233.3V224.3H896.488V214.3H906.588V223.3H932.888V206.2H905.588V197.1H896.488V178.1H905.588V169H933.888V178.1H942.988V224.3H933.888V233.3H905.588ZM906.588 196.1H932.888V179H906.588V196.1Z" fill="#514B74"/>
</g>
<defs>
<clipPath id="clip0_53_71901">
<rect width="1215" height="683" fill="white"/>
</clipPath>
<clipPath id="clip1_53_71901">
<rect width="1215" height="683" fill="white"/>
</clipPath>
<clipPath id="clip2_53_71901">
<rect width="160" height="52" fill="white" transform="translate(145 50)"/>
</clipPath>
<clipPath id="clip3_53_71901">
<rect width="255" height="82" fill="white" transform="translate(1054 97)"/>
</clipPath>
<clipPath id="clip4_53_71901">
<rect width="196" height="44" fill="white" transform="translate(721 64)"/>
</clipPath>
<clipPath id="clip5_53_71901">
<rect width="104" height="48" fill="white" transform="translate(9 138)"/>
</clipPath>
</defs>
</svg>
